<svg width="40" height="40" viewBox="0 0 40 40" fill="none" xmlns="http://www.w3.org/2000/svg">
<path d="M15.833 6.66602C8.93301 6.66602 3.33301 11.1493 3.33301 16.666C3.33301 19.816 5.13301 22.5993 7.96634 24.4327L6.66634 28.3327L10.833 25.8327C12.3163 26.3493 13.9497 26.666 15.683 26.666C15.2372 25.611 15.005 24.478 14.9997 23.3327C14.9997 17.816 20.2163 13.3327 26.6663 13.3327C26.983 13.3327 27.2997 13.3327 27.5997 13.3827C25.8997 9.48268 21.2997 6.66602 15.833 6.66602ZM10.833 10.8327C11.275 10.8327 11.699 11.0083 12.0115 11.3208C12.3241 11.6334 12.4997 12.0573 12.4997 12.4993C12.4997 12.9414 12.3241 13.3653 12.0115 13.6779C11.699 13.9904 11.275 14.166 10.833 14.166C10.391 14.166 9.96706 13.9904 9.6545 13.6779C9.34194 13.3653 9.16634 12.9414 9.16634 12.4993C9.16634 12.0573 9.34194 11.6334 9.6545 11.3208C9.96706 11.0083 10.391 10.8327 10.833 10.8327ZM19.1663 10.8327C19.6084 10.8327 20.0323 11.0083 20.3449 11.3208C20.6574 11.6334 20.833 12.0573 20.833 12.4993C20.833 12.9414 20.6574 13.3653 20.3449 13.6779C20.0323 13.9904 19.6084 14.166 19.1663 14.166C18.7243 14.166 18.3004 13.9904 17.9878 13.6779C17.6753 13.3653 17.4997 12.9414 17.4997 12.4993C17.4997 12.0573 17.6753 11.6334 17.9878 11.3208C18.3004 11.0083 18.7243 10.8327 19.1663 10.8327ZM26.6663 14.9993C21.1497 14.9993 16.6663 18.7327 16.6663 23.3327C16.6663 27.9327 21.1497 31.666 26.6663 31.666C27.783 31.666 28.8497 31.5327 29.8497 31.2493L33.333 33.3327L32.2997 30.216C34.9163 28.6993 36.6663 26.1827 36.6663 23.3327C36.6663 18.7327 32.183 14.9993 26.6663 14.9993ZM23.333 19.166C23.775 19.166 24.199 19.3416 24.5115 19.6542C24.8241 19.9667 24.9997 20.3907 24.9997 20.8327C24.9997 21.2747 24.8241 21.6986 24.5115 22.0112C24.199 22.3238 23.775 22.4993 23.333 22.4993C22.891 22.4993 22.4671 22.3238 22.1545 22.0112C21.8419 21.6986 21.6663 21.2747 21.6663 20.8327C21.6663 20.3907 21.8419 19.9667 22.1545 19.6542C22.4671 19.3416 22.891 19.166 23.333 19.166ZM29.9997 19.166C30.4417 19.166 30.8656 19.3416 31.1782 19.6542C31.4907 19.9667 31.6663 20.3907 31.6663 20.8327C31.6663 21.2747 31.4907 21.6986 31.1782 22.0112C30.8656 22.3238 30.4417 22.4993 29.9997 22.4993C29.5576 22.4993 29.1337 22.3238 28.8212 22.0112C28.5086 21.6986 28.333 21.2747 28.333 20.8327C28.333 20.3907 28.5086 19.9667 28.8212 19.6542C29.1337 19.3416 29.5576 19.166 29.9997 19.166Z" fill="black"/>
</svg>
